<mxfile host="app.diagrams.net" agent="Mozilla/5.0 (Windows NT 10.0; Win64; x64) AppleWebKit/537.36 (KHTML, like Gecko) Chrome/135.0.0.0 Safari/537.36" version="26.2.13">
  <diagram name="Page-1" id="oi49bJJJLrB58_nyAgDz">
    <mxGraphModel dx="803" dy="558" grid="1" gridSize="10" guides="1" tooltips="1" connect="1" arrows="1" fold="1" page="1" pageScale="1" pageWidth="850" pageHeight="1100" math="0" shadow="0">
      <root>
        <mxCell id="0" />
        <mxCell id="1" parent="0" />
        <mxCell id="0XU8yOEGEvphrWySqXgv-2" value="&lt;h2&gt;BOARD OF&amp;nbsp;&lt;br&gt;REGENTS&lt;/h2&gt;" style="rounded=0;whiteSpace=wrap;html=1;" vertex="1" parent="1">
          <mxGeometry x="350" y="80" width="130" height="70" as="geometry" />
        </mxCell>
        <mxCell id="0XU8yOEGEvphrWySqXgv-4" value="&lt;b&gt;&lt;font style=&quot;font-size: 20px;&quot; face=&quot;Times New Roman&quot;&gt;2007 UEP STRUCTURAL CHART&lt;/font&gt;&lt;/b&gt;" style="text;strokeColor=none;fillColor=none;html=1;align=center;verticalAlign=middle;whiteSpace=wrap;rounded=0;fontSize=16;" vertex="1" parent="1">
          <mxGeometry x="218.75" y="30" width="392.5" height="30" as="geometry" />
        </mxCell>
        <mxCell id="0XU8yOEGEvphrWySqXgv-8" value="&lt;b&gt;UNIVERSITY&amp;nbsp;&lt;/b&gt;&lt;div&gt;&lt;b&gt;PRESIDENT&amp;nbsp;&lt;/b&gt;&lt;/div&gt;" style="whiteSpace=wrap;html=1;rounded=0;" vertex="1" parent="1">
          <mxGeometry x="355" y="180" width="120" height="60" as="geometry" />
        </mxCell>
        <mxCell id="0XU8yOEGEvphrWySqXgv-10" value="" style="endArrow=none;html=1;rounded=0;fontSize=12;startSize=8;endSize=8;curved=1;entryX=0.5;entryY=1;entryDx=0;entryDy=0;exitX=0.5;exitY=0;exitDx=0;exitDy=0;" edge="1" parent="1" source="0XU8yOEGEvphrWySqXgv-8" target="0XU8yOEGEvphrWySqXgv-2">
          <mxGeometry width="50" height="50" relative="1" as="geometry">
            <mxPoint x="480" y="270" as="sourcePoint" />
            <mxPoint x="530" y="220" as="targetPoint" />
          </mxGeometry>
        </mxCell>
        <mxCell id="0XU8yOEGEvphrWySqXgv-11" value="&lt;b&gt;COA&lt;/b&gt;" style="whiteSpace=wrap;html=1;rounded=0;" vertex="1" parent="1">
          <mxGeometry x="190" y="180" width="120" height="60" as="geometry" />
        </mxCell>
        <mxCell id="0XU8yOEGEvphrWySqXgv-13" value="" style="endArrow=none;dashed=1;html=1;dashPattern=1 3;strokeWidth=2;rounded=0;fontSize=12;startSize=8;endSize=8;curved=1;entryX=0;entryY=0.5;entryDx=0;entryDy=0;" edge="1" parent="1" target="0XU8yOEGEvphrWySqXgv-8">
          <mxGeometry width="50" height="50" relative="1" as="geometry">
            <mxPoint x="312" y="210" as="sourcePoint" />
            <mxPoint x="530" y="220" as="targetPoint" />
          </mxGeometry>
        </mxCell>
      </root>
    </mxGraphModel>
  </diagram>
</mxfile>
